<svg xmlns="http://www.w3.org/2000/svg" width="30" height="26"><path d="M934.871 765a4.895 4.895 0 0 0-4.871 4.9v16.2a4.851 4.851 0 0 0 7.441 4.15l7.528-4.718a1.168 1.168 0 0 0-.615-2.157 1.148 1.148 0 0 0-.613.177l-7.529 4.718a2.544 2.544 0 0 1-3.89-2.17v-16.2a2.535 2.535 0 0 1 3.89-2.17l12.933 8.1a2.565 2.565 0 0 1 0 4.339 1.171 1.171 0 0 0-.371 1.608 1.158 1.158 0 0 0 1.6.373 4.9 4.9 0 0 0 0-8.3l-12.932-8.105a4.848 4.848 0 0 0-2.571-.745Zm23.8 0a1.329 1.329 0 0 1 1.329 1.328v23.344a1.328 1.328 0 0 1-2.656 0v-23.344a1.328 1.328 0 0 1 1.328-1.328Z" transform="translate(-930 -765)" style="fill:#b3b3b3;fill-rule:evenodd"/></svg>