<svg xmlns="http://www.w3.org/2000/svg" width="26" height="26"><path d="M1012.06 780.553a1.069 1.069 0 0 1-1.06-1.069V776.5a8.53 8.53 0 0 1 8.52-8.524h12.35v-2.659a.326.326 0 0 1 .32-.323.33.33 0 0 1 .19.1l4.5 3.758a.321.321 0 0 1-.02.445l-4.45 3.703a.345.345 0 0 1-.23.1.324.324 0 0 1-.31-.323v-2.659h-12.35a6.4 6.4 0 0 0-6.39 6.387v2.982a1.071 1.071 0 0 1-1.07 1.066Zm3.75 10.437a.311.311 0 0 1-.2-.1l-4.51-3.757a.361.361 0 0 1-.07-.218.326.326 0 0 1 .1-.227l4.45-3.707a.307.307 0 0 1 .53.227v2.66h12.36a6.39 6.39 0 0 0 6.38-6.388v-2.98a1.07 1.07 0 0 1 2.14 0v2.982a8.53 8.53 0 0 1-8.52 8.524h-12.36v2.66a.316.316 0 0 1-.3.324Z" transform="translate(-1011 -765)" style="fill:#b3b3b3;fill-rule:evenodd"/></svg>