<svg xmlns="http://www.w3.org/2000/svg" width="26" height="26"><path d="M584.225 790.988a.322.322 0 0 1-.318-.322v-2.639l-.4-.02a10.1 10.1 0 0 1-9.032-6.853l-1.89-5.653a7.883 7.883 0 0 0-7.49-5.388h-1.035a1.069 1.069 0 1 1 0-2.137h1.03a10.021 10.021 0 0 1 9.5 6.875l1.891 5.653a7.86 7.86 0 0 0 6.978 5.365l.451.029v-2.688a.323.323 0 0 1 .323-.323.332.332 0 0 1 .241.09l4.248 3.534.178.2a.336.336 0 0 1 .105.244.33.33 0 0 1-.1.227l-4.459 3.707a.341.341 0 0 1-.221.099Zm0-17.893a.322.322 0 0 1-.32-.323v-2.689l-.453.031a7.944 7.944 0 0 0-4.7 1.97 1.07 1.07 0 0 1-.706.266 1.092 1.092 0 0 1-.849-.368 1.066 1.066 0 0 1 .106-1.507 10.2 10.2 0 0 1 6.206-2.5l.4-.02v-2.639a.285.285 0 0 1 .5-.224l4.519 3.762a.324.324 0 0 1-.023.444l-4.459 3.708a.334.334 0 0 1-.219.094Zm-20.165 14.911a1.068 1.068 0 1 1 0-2.136h1.03a7.937 7.937 0 0 0 4.875-1.68l.064-.046a1.072 1.072 0 0 1 1.457.161 1.067 1.067 0 0 1-.119 1.506 10.106 10.106 0 0 1-6.277 2.195h-1.03Z" transform="translate(-563 -765)" style="fill:#b3b3b3;fill-rule:evenodd"/></svg>